<?xml version="1.0" encoding="UTF-8"?>
<svg id="text" xmlns="http://www.w3.org/2000/svg" width="6.71in" height="3.23in" viewBox="0 0 483.35 232.44">
  <defs>
    <style>
      .cls-1 {
        fill: #231f20;
        stroke-width: 0px;
      }
    </style>
  </defs>
  <path class="cls-1" d="m204.22,99.95s.82-34.15-21.7-63.02C163.78,14.44,134.8,0,102.28,0,45.79,0,0,43.53,0,97.22s45.79,97.22,102.28,97.22c1.41,0,2.81-.03,4.2-.09,10.65-1.55,48.05-9.77,65.21-50-3.23,4.86-6.95,9.39-11.12,13.48-15.37,15.07-36.61,24.39-60.06,24.39s-44.69-9.32-60.06-24.39c-15.37-15.07-24.88-35.9-24.88-58.9,0-23,9.51-43.83,24.88-58.9,15.37-15.07,36.61-24.39,60.06-24.39,16.14,0,31.24,4.42,44.1,12.09l-.03-.15s39.15,19.1,44.48,69.74c0,0,5.21,45.07-22.84,79.62-23.6,29.88-54.81,33.08-54.81,33.08l2.17-12.25c-16.66,17.51-38.57,10.54-48.99,5.63-3.77-1.38-6.01-2.63-6.01-2.63,31.48,39.31,66.02,31.45,72.98,29.35l-11.09-5.01-2.18-.81.24-.07-.24-.11s.02,0,.06-.02h-.06s.1-.02.29-.07c2.12-.6,15.53-4.56,30.49-12.54,25.94-15.18,58.37-47.16,55.13-111.54Z"/>
  <path class="cls-1" d="m169.25,66.38c-.85-.89-1.96-1.85-2.74-2.53-.69-.59-1.33-1.5-2.44-1.35-1.37.18-1.54,2.61.36,2.53,1.21,1.95,3.11,3.22,5.06,4.43-.55-.11-1.18.66-1.72.63-.37-.02-.79-.58-1.18-.91-1.07-.91-3.04-1.35-3.97-2.26-.94-.91-.82-2.52-2.44-2.62-1.23-.07-1.86,1.04-2.89,1.17-.69.09-1.42-.47-2.35-.36-1.24.14-1.5,1.02-1.99,2.44-.4.25-.93.37-1.36.63-.5.3-1.08.81-1.5,1.34-1.84-.53-2.09,1.63-3.42,2.04-.48-.48-.1-.81-.2-1.25-.22-1.14-1.66-1.05-2.31-.46-.29.27-.53.83-.99,1.52-.39.58-.9,1.12-1.05,1.45-.05.11-.09.23-.12.35-.32.05-.66.12-1.08.17-.26-.44-.59-.84-.45-1.63.05-.32.49-.66.63-1.18.41-1.53-.71-3.64.27-4.52,1.43-1.28,5.2-.07,7.32-.09.44-.74.86-1.86.81-2.98-.02-.61-.38-1.13-.09-1.62-.32-1.49-2.61-.53-3.7-.91.03-.21.14-.34.09-.63.36-.36.86-.08,1.27-.18.54-.13.87-.6,1.36-.81,1.18-.52,2.43-.49,3.89-.81.41-.25.38-.94.36-1.63.82-.23,1.46-.64,2.26-.9,1.05-1.3,2.73-3,5.15-2.08-.02-.73-.58-.93-.81-1.45.01-.54,0-1.07.08-1.54-8.94-11.04-20.96-19.46-34.77-23.97-.04.22-.08.43-.11.65-1.33.07-2.85-.04-3.34,1.18-.16.38-.04.84-.27,1.36-1.67-.9-3.67.46-2.9,2.26.77.32,2.14.03,2.35.9-.64.12-1.28-.02-1.9.09-.46.09-1.02.54-1.54.72-1.87.66-4.16.46-5.42,1.36-.47.34-.85,1.23-1.36,1.45-.61.27-1.5.03-2.08.09-1.53.16-2.54,1.06-3.8,1.63-.39.51-.43,1.37-.63,2.08-.42.41-.68.21-1.09.72-.76.97-.2,2.91-1.17,2.98-.67.05-.53-.77-1.09-1-.85-.17-1.33.22-1.89.09-1.08-.25-1.55-2.34-3.34-1.72-.13-.44-.36-.79-.54-1.18,0-.31.26-.33.45-.45-.55-.14-.11-1.12-.63-1.45-.46-.09-.92-.22-1.36-.09-.68-1.05-.68-2.8.27-3.53.14-.34-.4-.02-.27-.36.04-.33.56-.79,1-1,.08.4.38.69.72.63.5-.08.54-.68.45-1.45-.1-.9-.89-1.51-1.35-1.81.65-.1.16-.38.36-.99-.44-.42-1.05-.73-1.62-.64-.96.17-1.23,1.64-1.44,2.26,0,.17.3-.11.54,0-.18.27-.45.45-.9.45.04-1.25-.02-3.17-.63-4.07.54-.87-.22-1.92-.82-2.35-.53-.38-1.42-.76-2.42-1.08-5.39,1.08-10.57,2.74-15.47,4.91.03.02.06.04.09.06.79.42,1.7.86,2.44,1.17,1.9.8,3.66.84,5.6,1.54-.21.92-1.18,1.59-.27,2.44.49.08,1.07.07,1.08.64.53-.2,1.24-.21,1.81-.36,1.16.95,2.29,1.92,4.25,2.08-.17.32-.6.35-.99.54-.53.25-.93.75-1.99.54-.9-.18-1.44-1.43-2.98-1.09-1.17.26-1.59,2.59.27,2.35.5.67,1.76.59,1.99,1.54-.58.46-1.34.18-2.08.27-.53.07-1.03.41-1.54.36-.58-.06-.88-.65-1.44-.82-.5-.15-1.15.02-1.72-.18-.93-.33-1.59-1.24-2.35-1.36-.6-.09-1.23.19-1.99.27-1.41.15-2.4-.04-3.25.73-.23-.79-.01-1.55.45-1.9.95-.16,1.85.35,2.53.18.73-.19.74-.92,1.18-1.45.58-.42,1.41-.59,1.81-1.17-.12-.15-.31-.23-.54-.27.22-.38.58-.44.45-.99-.13-.58-1.16-.88-1.81-.73-.89.21-1.51,3.17-3.08,2.8.1-.87.99-.94,1.27-1.63-.22-.97.72-1.57.09-2.26-.32-.34-1-.19-1.63-.45-.32-.13-.62-.51-.9-.54-.32-.04-1.33.18-2.17.33-.85.46-1.69.95-2.52,1.45-.11.52.04,1.06.44,1.38.14.11.83.38,1.18.36-1.01,1.21-3.23.4-4.61.99-1.25.54-1.56,2.22-2.72,2.89-2.09-.1-3.16,1.06-4.51,2.26-.95.84-1.96,1.48-2.44,2.17-.47.67-.87,2.03-.54,2.71.3.64,1.25.46,1.72,1.09h.99c.21.54.37,1.13.63,1.62.51-.18,1.24-.14,1.81-.27,2.15,1.34,4.76,2.23,8.22,2.26.17.25.38.46.63.63-.17.46-.59.67-.72,1.17.11.34.64.27.99.36.08.26.11.56.19.81.29.11.66-.95.99-.81.28.85-.74,1.12-.81,1.9.14.56.95.44,1.26.82.5.03,1.72.12,1.9-.45.17-.84-.35-1.59-.45-2.26-.04-.24.07-.51,0-.72-.22-.63-.98-.91-.91-1.63.91-.7,1.05.57,1.63.63.68.08,1.82-1.39,1.81-2.17,0-.59-.7-.88-.18-1.36-.37-.84-2.06-.35-2.17-1.44.38-.07.57-.33,1.09-.27-.23-1.13-.06-2.57.18-3.52,1.64.05,3.23-.65,4.6-.09.79.32,1.39,1.22,2.45,1.45.75.16,1.28-.1,1.9.45-.42.36-.81.76-1.18,1.18.14.58.58.86,1.36.81.58.61,1.17.98,1.81.9.62-.08.98-.72,1.35-1.27.34-.5.75-1.34,1.18-1.35.6-.03,1.48,1.61,1.81,2.08.63.9,1.14,1.46,1.71,2.17.02.26-.34.21-.09.45.42.11.53.79,1.17,1.26,1.91.02,2.9.96,3.35,2.44.48.36,1.23.45,1.71.81-.59.32-.98.96-1.63,1.18-.34.11-.81-.02-1.17.09-.59.18-1.03.78-1.72,1.17-.65.37-1.48.51-1.99.81-.57.35-.9,1.08-1.53,1.18-.02.31-.23.43-.18.81-.31-1.05.39-1.65-.27-2.35-1.92-.88-2.99-.43-4.34.72-.82.7-1.6,1.11-1.72,2.26.11.55.86.09.45.72,1.75-.03,3.46-2.34,4.88-.72-.27.55-.92.71-1.08,1.36.08,1.08,1.47.3,1.62,1.27.58-.2.82-.74,1.45-.9.03.57-.11,1.31.18,1.63,1,.37,1.13-.75,1.81-.99.45.06.38.65.63.9-.47,1.01-1.75.94-3.16,1.17-1.57.26-2.52,1.33-3.52,1.72-.34-.68.24-1.04.18-1.54-.17-1.34-1.34-.57-2.44-.18-.94.34-1.97.48-2.53,1.09-.7.75-.69,1.62-.55,2.71-.88.45-1.86.23-2.53.73-.31.23-.59.64-.91,1.08-.26.37-.64.75-.81,1.08-.14.28-.11.71-.27,1-.35.62-1.15.75-1.35,1.36-.04.7.03,1.3.27,1.72-.76,2.33-4.07,3.51-5.42,5.33-.34.46-.71,1.39-.63,2.08.06.52.54,1.05.82,1.72.42,1.04.85,2.27.27,3.61-.27-.27-.62-.74-1.17-.45-.29-.78-.78-1.68-.72-2.71.04-.66.39-1.39-.36-1.72-1.3.39-1.54-.87-2.44-.99-.98-.14-2.85.07-3.52.36-.64.27-1.01,1.02-1.54,1.09-.4.04-.85-.36-1.26-.46-.7-.15-1.74-.14-2.54.09-.74.21-1.36.85-2.08,1.45-1.11.93-2.17,1.23-2.26,2.62-.03.48.21,1.13.18,1.63-.03.63-.31,1.36-.36,2.08-.14,1.9.1,3.69,1.26,4.79.3.14.4.14.63.18.36.51.76.97,1.17,1.36.47.44,1.08,1.27,2.08,1.08.77-.14,1.17-1.3,2.35-.63.32.05.22-.32.54-.27.18-.62.05-1.58.09-2.35.44-.3,1.24-.63,2.08-.72.64-.07,1.46-.06,1.9.09.44.75-.55,1.13-.99,1.54-.7,1.32-1.38,3.13-1.09,5.15.65.61,1.96.57,2.9.91.9-.92,2.47-1.15,2.98.27-1.24,1.27-1.34,4.68-.63,6.6-.68-.2-1.27-.59-1.9-.37-.36-.88-.75-2.04-.54-2.98-.43-1.1-1.36-1.67-2.71-1.99-1.31-.31-2.71-.31-3.53-1.09-.79-.76-1.11-2.04-1.98-2.35-1.26-.45-1.91.65-2.8.72-.42-.13-.6-.64-.9-.81-.86-.49-2.01-.11-2.8-.63-.32-.21-.53-.71-.81-1-.85-.85-1.96-1.36-3.17-1.99-.39,0-.81-.03-1.08.09-.59-.7-.33-1.75-.45-2.62-.07-.47-.57-1.01-.63-1.44-.05-.34.16-.5.09-.73-.25-.88-1.08-1.5-2.26-1.35-.47-.83-.89-1.7-1.45-2.44.23-.16.1-.11.09-.45-.4-.97-1.22-1.96-1.99-2.26-.1-.05-.13.17-.09.29.03.02.06.05.09.07-.05.02-.07-.02-.09-.07-.87-.67-2.19-2.25-1.72-3.9-.32-1.53-2.36-.94-2.44.36-.03.52.25.87.54,1.36.3.06.3.27.63.09.92,1.34,2.13,2.39,2.89,3.89-.78,1.69,1.77,2.72,2.44,4.07-.36,0-.54.22-.9.18-.74-.09-1.35-1.02-1.9-1.08-.1-.62-.44-1.01-.72-1.45.2-.54-.18-1.65-.82-1.89-.72.06-1.43.61-1.8.72-.18-.96.8-1.37.81-1.99,0-.61-.68-.61-.45-1.35-.34-.35-.84-.56-1.18-.45-.08-.2-.16-.4-.24-.6-.89,4.62-1.38,9.38-1.38,14.26,0,31.34,19.37,58.15,46.78,69.14.41-1.6,1.56-2.89,1.57-4.53,0-.66-.46-1.39-.36-2.08.07-.48.42-.64.63-1.08-.05-.46-.1-.92-.18-1.36.25-.34.96-.68,1.08-1.26.07-.34-.14-.93-.18-1.45-.24-3.31,1.71-8.43,0-10.57.25-1.25-.88-2.08-1.9-2.89-1.07-.86-2.09-1.76-3.52-1.27-.45-.92-.36-1.83-.81-2.71-.39-.77-.96-1.37-1.26-2.17-.63-1.67-1.15-3.33-1.9-5.06.3-1.05-.53-1.8-1.63-1.44-1.18-1.34.52-2.19.73-3.35.2-1.18-.82-2.22-.73-3.16.09-.89,1.72-1.9,2.35-2.62.98-1.11,1.88-3.04,1.54-5.61-.19-1.33-1.08-1.97-1.17-3.43-1.21-.94-2.2.77-3.34.72-1.15-.05-1.75-1.3-2.26-2.35.34-.06.62.4.9.09.69,1.13,1.51,1.29,2.8.54.45-.26.92-.72,1.36-.72.59-.01,1.16.39,1.36,1.44,1.24.23,1.97-.88,2.62-1.62,1.15-1.31,1.93-2.78,4.16-2.99-.09,1.4-2,1.51-1.54,3.35.27.21.65-.25.91-.36.24.49.02.97.36,1.44.67-.05.29-.8.36-1.17.24-1.2,1.28-2.59,2.08-2.44.68.13.5,1.22,1.17,1.53.7-.17,1.46-.6,2.17-.27.49.23.52.75.72,1.27.62-.14.51-1,.81-1.45,1.46-.42,2.6.21,3.08,1.09.51-.3.84-1.27,1.26-1.36.36.1-.2.73-.18,1.08-.49.44-1.14.72-1.27,1.54.18.75,1.43.44,1.81.99h.99c.99.79,1.39,2.17,2.35,2.98,1.2.26,2.32-.1,3.26.18,1.15.35,1.69,1.42,2.35,2.17.15.31-.08.48.09.81.17.19.14.44.45.27-.04.43.34.44.36.81.32.25.88.27,1.09.63-.37.33-.78.83-1.45,1.17-.77.4-2.31.59-1.99,1.9.13.53,1.19.9,2.08.63.63-.19.69-1.02,1.17-1.17.41.04,1-.09,1.27.09.24.68.06,1.67-.36,1.99-.22-.08.2-.27.09-.54-.93-.32-1.36.62-1.63,1.26.2.16.63.03.35.45h1.27c.28-.86.5-1.79,1.17-2.26,1.88-.21,2.61.46,3.71,1.27.64.46,1.41,1.15,2.08,1.26.89.15,1.76-.27,2.53,0,.88.31,1.69,1.73,2.53,2.17,1.11.58,2.32.58,2.8,1.81-.69.82-.77,2.44-1.26,3.62-.68,1.61-1.67,2.72-2.8,4.16-.55.69-1.16,1.45-1.27,2.17-.1.68.23,1.28.27,1.99.03.65-.32,1.4-.45,2.17-.14.78-.08,1.62-.27,2.26-.42,1.41-1.53,2.72-1.99,3.97-1.6.41-2.97.84-4.52,1.63-1.26.64-2.94,1.43-3.07,3.16-.06.69.3,1.42.09,2.17-.21.71-.88,1.97-1.27,2.34-.42.4-1.1.51-1.54.99-.68.77-.85,2.17-1.53,3.16-.47.67-.98,1.53-1.72,1.81-.75.28-1.74-.03-2.36.09-.38-.37-.2-1.3-.45-1.81-.41.08-.08.82-.09,1.08-.26-.05-.32.5-.36.99-.04.53.59,1.18.63,1.72.06.64-.36,1.27-.63,1.72-.22.38-.73,1.11-1.08,1.27-.86.37-2.1-.01-3.07.18-.3.06-.52.17-.71.31,5.46,1.28,11.15,1.97,17,1.97,25.89,0,48.68-13.21,62.03-33.25.02-.04.03-.09.05-.13.08-.17.24-.39.43-.62.52-.81,1.04-1.62,1.53-2.45-.18-.87-1.02-1.68-1.15-2.89-.1-.95.13-1.75,0-2.53-.14-.86-.79-1.71-1.18-2.44-.44-.84-.88-1.62-1.36-2.26.06-.36-.01-.66-.36-.99-.53-.22-1.08-.43-1.27-1-.12-.7.13-1.42.27-2.17.17-.9.08-1.9.36-2.62.17-.43.72-.75.81-1.18.17-.83-.44-1.28-.18-1.99-.37-.73-.86-1.22-1.63-1.26-1.24-.07-2.44,1.25-3.25,1.36-.12-.81-.65-1.16-.72-1.72-.03-.25.17-.5.09-.82-.26-1.03-1.63-1.58-3.16-1.08-1.25.41-2.37,1.69-4.16,1.9-1.87.22-3.71-.41-5.06.18-.47.21-1.05.88-1.45.9-.67.04-1.61-.91-2.08-1.35-.96-.91-1.52-1.76-2.53-2.08-.25-.31-.38-.78-.63-1.27-.19-.38-.61-.77-.72-1.18-.09-.33.03-.68-.09-1-.4-1.09-1.61-1.79-2.8-1.45-.79-.5-.02-1.5-.18-2.53-.09-.6-.73-.97-.72-1.44,0-.2.29-.61.54-1,.54-.85,1.28-2.16,1.36-3.25.1-1.51-.96-2.9-.9-4.34.03-.87.72-2.18,1.17-3.25.49-1.16.88-2.16,1.36-2.98.9-1.57,3.15-2.4,4.43-3.52.04-1.51.09-3.39.91-4.52.47-.65,1.19-1.1,1.9-1.63.66-.49,1.47-1.23,2.17-1.35.63-.12,1.42.16,2.17.09.88-.09,1.79-.66,2.72-1.14,0,0,0,0,.01,0,1.1.22,2.28-.03,3.17-.33.04-.39-.04-.67-.14-.93.23-.1.46-.18.66-.23,1.56-.37,3.31.11,4.88-.09.56-.07,1.18-.52,1.9-.46.73.07,1.03.56,1.45,1.09-.43,1-2.73,3.64-.19,3.79,1.25,1.22,3.42,1.71,4.98,2.71.64.41,1.25.94,1.99,1.18.38.12,1.13.28,1.62.18.66-.14,1.06-.98,1.63-1.54.5-.49,1.11-1.1,1.71-1.24-1.11-4.59-2.65-9.01-4.57-13.23Zm-104.6-25.84c-.48-.11-.66-1.05-1.27-1.27-1.09-.39-2.07.25-2.98.81.02.15-.09.16-.09.27-.06.17-.14-.1,0-.09,0-.13-.01-.25.09-.27-.24-.59-.57-1.52-.54-2.08,1.08.16,1.93-.09,2.71.09.59.13,1.11.74,1.63,1.08.58.38,1.1.68,1.72.9-.27.32-.71.67-1.26.54Zm26.84-6.78c-.56-1.8,1-3.13,2.71-2.35-.29.85-1.14,1.15-1.45,1.99-.5.01-.95.46-1.26.36Zm1.63,26.03c-.66.17-1.31-.2-1.99-.18-1.33.04-1.85,1.09-2.8,1.18.34-1.77,1.47-2.75,2.17-4.16.37.05.55.38.36.73.46.62,1.46.7,2.62.63.23.29.45.58.54,1-.21.28-.53.71-.9.81Zm28.11-28.02c-.08.22-.08.52-.36.54-.47-.66.01-1.58.18-2.17,1.04,0,.95,1.42.18,1.63Zm10.04,7.32c-.72.3-1.33,1.01-2.17.9-.43-.06-.64-.44-1.08-.63-.85-.37-1.79-.44-3.08-.27-.09-.52-.37-.52-.36-.99.04-1.64,2.67-.96,3.35-.18,2.02-.12,4.82-1.27,6.32,0-.56.86-2,.77-2.98,1.17Zm12.11,8.59c.53-.05.87.09,1.26.18.64-.25.66-.98,1.27-1.18.95-.32,1.84.62,2.53,1.18-.33.52-.96.78-.99,1.54-.04.91.73,1.65,1.63,1.54,1.03,1.14,2.19,2.14,3.16,3.35-.44.37-.6,1.02-.99,1.45-.75.55-2-.28-3.25-.18-1.14.09-2.14.71-2.8-.09-.02-.6.67-.94,1.08-1.36.45-.44.88-.94,1.27-1.36-.13-.11-.22-.26-.45-.27.27-.38.45-.44.37-.9-.11-.59-2.24-1.43-2.53-1.36-.32.08-.55.37-.45.72-.93-.43-1.61-1.95-1.08-3.25Zm-3.16,8.13c-.11-.25-.27-.46-.27-.81.05-.32.4-.32.54-.54,0-.92-.73-1.71,0-2.35h.81c.3-.69,1.25-1.53,2.35-1.17.18.06.4.36.54.54-.15.45-.4.81-.73,1.09-.16,2.01-2.02,2.31-3.25,3.25Zm4.79,20.34c-.21.03-.1-.26-.27-.27.06-.27.19.08.36,0-.05.07-.09.15-.09.27Zm22.77-4.34c-.17-.25-.28-.56-.36-.9.52.11.38.35.36.9Z"/>
  <g>
    <g>
      <path class="cls-1" d="m236.12,197.43c-2.09,2.25-5.11,3.38-9.06,3.38s-6.97-1.13-9.06-3.38c-2.8-2.76-4.2-6.75-4.2-11.95s1.4-9.29,4.2-11.95c2.09-2.25,5.11-3.38,9.06-3.38s6.97,1.13,9.06,3.38c2.79,2.66,4.18,6.64,4.18,11.95s-1.39,9.19-4.18,11.95Zm-3.61-4.4c1.34-1.77,2.01-4.28,2.01-7.55s-.67-5.76-2.01-7.54c-1.35-1.78-3.16-2.66-5.45-2.66s-4.11.88-5.48,2.65c-1.36,1.77-2.04,4.29-2.04,7.55s.68,5.78,2.04,7.55c1.36,1.77,3.19,2.65,5.48,2.65s4.11-.88,5.45-2.65Z"/>
      <path class="cls-1" d="m248.85,171.03h6.06l10.98,20.2v-20.2h5.38v28.97h-5.78l-11.25-20.56v20.56h-5.38v-28.97Z"/>
      <path class="cls-1" d="m301.36,176.16h-14.63v6.15h13.43v5.03h-13.43v7.45h15.31v5.21h-20.96v-28.97h20.28v5.13Z"/>
      <path class="cls-1" d="m329.43,171.03l3.65,16.59.8,4.62.79-4.52,3.12-16.69h6.1l3.28,16.59.84,4.62.86-4.44,3.69-16.77h5.88l-7.78,28.97h-5.54l-3.34-16.94-.97-5.6-.98,5.6-3.34,16.94h-5.37l-7.84-28.97h6.13Z"/>
      <path class="cls-1" d="m387.45,197.43c-2.09,2.25-5.11,3.38-9.06,3.38s-6.97-1.13-9.06-3.38c-2.8-2.76-4.2-6.75-4.2-11.95s1.4-9.29,4.2-11.95c2.09-2.25,5.11-3.38,9.06-3.38s6.98,1.13,9.06,3.38c2.79,2.66,4.18,6.64,4.18,11.95s-1.39,9.19-4.18,11.95Zm-3.61-4.4c1.35-1.77,2.02-4.28,2.02-7.55s-.67-5.76-2.02-7.54c-1.34-1.78-3.16-2.66-5.45-2.66s-4.11.88-5.47,2.65c-1.36,1.77-2.05,4.29-2.05,7.55s.68,5.78,2.05,7.55c1.36,1.77,3.19,2.65,5.47,2.65s4.11-.88,5.45-2.65Z"/>
      <path class="cls-1" d="m417.99,171.78c1.02.46,1.88,1.13,2.59,2.02.58.73,1.05,1.55,1.39,2.44.34.89.51,1.91.51,3.05,0,1.38-.33,2.73-1,4.06-.66,1.33-1.75,2.27-3.28,2.82,1.28.54,2.18,1.3,2.71,2.29.53.99.8,2.5.8,4.53v1.95c0,1.32.05,2.22.15,2.69.15.75.51,1.3,1.07,1.65v.73h-6.38c-.17-.64-.3-1.16-.38-1.55-.15-.81-.23-1.64-.24-2.5l-.04-2.69c-.02-1.85-.33-3.08-.91-3.69-.59-.62-1.69-.92-3.29-.92h-5.65v11.36h-5.65v-28.97h13.23c1.89.04,3.35.29,4.36.75Zm-11.95,4.28v7.79h6.22c1.24,0,2.17-.16,2.78-.47,1.09-.55,1.64-1.64,1.64-3.26,0-1.76-.53-2.94-1.59-3.54-.59-.34-1.48-.51-2.67-.51h-6.38Z"/>
      <path class="cls-1" d="m432.24,171.03h5.78v23.77h13.81v5.21h-19.58v-28.97Z"/>
      <path class="cls-1" d="m476.14,171.66c1.94.67,3.51,1.89,4.71,3.68.96,1.44,1.62,3,1.97,4.68.35,1.68.52,3.28.52,4.8,0,3.85-.74,7.12-2.21,9.79-2,3.6-5.09,5.41-9.27,5.41h-11.92v-28.97h11.92c1.71.03,3.14.24,4.28.63Zm-10.59,4.4v18.91h5.34c2.73,0,4.64-1.41,5.71-4.23.59-1.55.88-3.39.88-5.52,0-2.95-.44-5.21-1.32-6.79-.89-1.58-2.64-2.37-5.27-2.37h-5.34Z"/>
    </g>
    <g>
      <path class="cls-1" d="m214.01,202.84h19.76v5.06h-14.01v6.63h12.28v5.01h-12.28v12.09h-5.75v-28.79Z"/>
      <path class="cls-1" d="m261.15,229.08c-2.09,2.24-5.12,3.36-9.08,3.36s-6.99-1.12-9.08-3.36c-2.81-2.75-4.21-6.72-4.21-11.89s1.41-9.25,4.21-11.9c2.09-2.24,5.12-3.36,9.08-3.36s6.99,1.12,9.08,3.36c2.79,2.65,4.19,6.61,4.19,11.9s-1.4,9.14-4.19,11.89Zm-3.62-4.38c1.35-1.76,2.02-4.26,2.02-7.51s-.67-5.74-2.02-7.5c-1.35-1.77-3.17-2.65-5.46-2.65s-4.13.88-5.49,2.64c-1.37,1.76-2.05,4.27-2.05,7.51s.68,5.75,2.05,7.51c1.37,1.76,3.2,2.64,5.49,2.64s4.11-.88,5.46-2.64Z"/>
      <path class="cls-1" d="m272.04,202.8h5.88v17.71c0,1.98.23,3.43.68,4.34.7,1.62,2.22,2.43,4.57,2.43s3.85-.81,4.55-2.43c.45-.91.68-2.36.68-4.34v-17.71h5.88v17.72c0,3.06-.46,5.45-1.37,7.16-1.7,3.13-4.95,4.69-9.74,4.69s-8.05-1.56-9.76-4.69c-.91-1.71-1.37-4.09-1.37-7.16v-17.72Z"/>
      <path class="cls-1" d="m302.03,202.8h6.07l11,20.11v-20.11h5.4v28.84h-5.79l-11.28-20.46v20.46h-5.4v-28.84Z"/>
      <path class="cls-1" d="m348.45,203.43c1.95.66,3.52,1.88,4.73,3.66.97,1.43,1.62,2.99,1.98,4.65.35,1.67.53,3.26.53,4.78,0,3.83-.74,7.08-2.22,9.74-2.01,3.59-5.11,5.38-9.3,5.38h-11.95v-28.84h11.95c1.72.03,3.15.24,4.29.63Zm-10.62,4.38v18.82h5.35c2.74,0,4.65-1.4,5.73-4.2.59-1.54.88-3.37.88-5.5,0-2.94-.44-5.19-1.33-6.76-.89-1.57-2.64-2.36-5.28-2.36h-5.35Z"/>
      <path class="cls-1" d="m370.22,202.8h6.55l9.81,28.84h-6.28l-1.83-5.93h-10.21l-1.88,5.93h-6.06l9.89-28.84Zm-.38,17.94h7.1l-3.5-11.35-3.59,11.35Z"/>
      <path class="cls-1" d="m409.68,202.8v5.11h-8.29v23.73h-5.83v-23.73h-8.33v-5.11h22.45Z"/>
      <path class="cls-1" d="m420.62,231.64h-5.75v-28.84h5.75v28.84Z"/>
      <path class="cls-1" d="m449.65,229.08c-2.09,2.24-5.12,3.36-9.08,3.36s-6.99-1.12-9.08-3.36c-2.81-2.75-4.21-6.72-4.21-11.89s1.4-9.25,4.21-11.9c2.09-2.24,5.12-3.36,9.08-3.36s6.99,1.12,9.08,3.36c2.8,2.65,4.19,6.61,4.19,11.9s-1.4,9.14-4.19,11.89Zm-3.62-4.38c1.35-1.76,2.02-4.26,2.02-7.51s-.67-5.74-2.02-7.5c-1.35-1.77-3.17-2.65-5.46-2.65s-4.13.88-5.49,2.64c-1.37,1.76-2.05,4.27-2.05,7.51s.68,5.75,2.05,7.51c1.37,1.76,3.2,2.64,5.49,2.64s4.12-.88,5.46-2.64Z"/>
      <path class="cls-1" d="m460.45,202.8h6.07l11,20.11v-20.11h5.4v28.84h-5.79l-11.29-20.46v20.46h-5.4v-28.84Z"/>
    </g>
  </g>
  <g>
    <polygon class="cls-1" points="348.55 166.81 348.55 11.61 330.07 11.61 330.07 144.79 240.33 11.61 215.65 11.61 215.65 166.81 234.13 166.81 234.13 33.88 325.16 166.81 348.55 166.81"/>
    <polygon class="cls-1" points="482.88 166.81 482.88 151.85 377.93 151.85 377.93 93.88 473.29 93.88 473.29 79.45 377.93 79.45 377.93 27.12 481.1 27.12 481.1 11.61 358.98 11.61 358.98 166.81 482.88 166.81"/>
  </g>
</svg>